{"title":"Scream 4 (2011) Dual Audio [Hindi-Eng]@Mastitorrents","uid":6582659,"size":535093416,"categoryP":"video","categoryS":"movies","magnet":"?xt=urn:btih:2a031429f5b44a903c5f988ce6fc362ead4e8b39&amp;dn=Scream+4+%282011%29+Dual+Audio+%5BHindi-Eng%5D%40Mastitorrents&amp;tr=udp%3A%2F%2Ftracker.openbittorrent.com%3A80&amp;tr=udp%3A%2F%2Fopen.demonii.com%3A1337&amp;tr=udp%3A%2F%2Ftracker.coppersurfer.tk%3A6969&amp;tr=udp%3A%2F%2Fexodus.desync.com%3A6969","seeders":0,"leechers":1,"uploader":"amanrulz","files":4,"time":1312476374,"description":"mastitorrents.com\n &lt;a href=&quot;\nhttp://mastitorrents.com/forums/index.php&quot; rel=&quot;nofollow&quot; target=&quot;_NEW&quot;&gt;\nhttp://mastitorrents.com/forums/index.php&lt;/a&gt;\n\nGeneral\n Format                           : Matroska\n File size                        : 504 MiB\n Duration                         : 1h 43mn[end credit cut]\n Overall bit rate                 : 679 Kbps Encoded date                     : UTC 2011-07-31 08:58:21 Writing application              : mkvmerge v4.7.0 ('Just Like You Imagined') built on Apr 21 2011 01:13:14\n Writing library                  : libebml v1.2.0 + libmatroska v1.1.0\n Video\n ID                               : 1\n Format                           : AVC\n Format/Info                      : Advanced Video Codec\n Format profile                   : &lt;a class=&quot;__cf_email__&quot; href=&quot;/cdn-cgi/l/email-protection&quot; data-cfemail=&quot;753d1c121d3539415b45&quot;&gt;[email&amp;#160;protected]&lt;/a&gt;&lt;script cf-hash='f9e31' type=&quot;text/javascript&quot;&gt;\n/* &lt;![CDATA[ */!function(){try{var t=&quot;currentScript&quot;in document?document.currentScript:function(){for(var t=document.getElementsByTagName(&quot;script&quot;),e=t.length;e--;)if(t[e].getAttribute(&quot;cf-hash&quot;))return t[e]}();if(t&amp;&amp;t.previousSibling){var e,r,n,i,c=t.previousSibling,a=c.getAttribute(&quot;data-cfemail&quot;);if(a){for(e=&quot;&quot;,r=parseInt(a.substr(0,2),16),n=2;a.length-n;n+=2)i=parseInt(a.substr(n,2),16)^r,e+=String.fromCharCode(i);e=document.createTextNode(e),c.parentNode.replaceChild(e,c)}}}catch(u){}}();/* ]]&gt; */&lt;/script&gt; Format settings, CABAC           : Yes\n Format settings, ReFrames        : 3 frames\n Muxing mode                      : Container profile=&lt;a class=&quot;__cf_email__&quot; href=&quot;/cdn-cgi/l/email-protection&quot; data-cfemail=&quot;7f2a1114111008113f4b514f&quot;&gt;[email&amp;#160;protected]&lt;/a&gt;&lt;script cf-hash='f9e31' type=&quot;text/javascript&quot;&gt;\n/* &lt;![CDATA[ */!function(){try{var t=&quot;currentScript&quot;in document?document.currentScript:function(){for(var t=document.getElementsByTagName(&quot;script&quot;),e=t.length;e--;)if(t[e].getAttribute(&quot;cf-hash&quot;))return t[e]}();if(t&amp;&amp;t.previousSibling){var e,r,n,i,c=t.previousSibling,a=c.getAttribute(&quot;data-cfemail&quot;);if(a){for(e=&quot;&quot;,r=parseInt(a.substr(0,2),16),n=2;a.length-n;n+=2)i=parseInt(a.substr(n,2),16)^r,e+=String.fromCharCode(i);e=document.createTextNode(e),c.parentNode.replaceChild(e,c)}}}catch(u){}}();/* ]]&gt; */&lt;/script&gt;\n Codec ID                         : V_MPEG4/ISO/AVC\n Duration                         : 1h 43mn\n Bit rate                         : 474 Kbps\n Width                            : 720 pixels\n Height                           : 394 pixels\n Display aspect ratio             : 16:9\n Frame rate                       : 23.976 fps\n Resolution                       : 24 bits\n Colorimetry                      : 4:2:0\n Scan type                        : Progressive\n Bits/(Pixel*Frame)               : 0.070\n Stream size                      : 351 MiB (70%)\n Title                            : imkhan\n Writing library                  : x264 core 104 r1683 62997d6 Encoding settings                : cabac=1 / ref=3 / deblock=1:0:0 / analyse=0x3:0x133 / me=umh / subme=7 / psy=1 / psy_rd=1.00:0.00 / mixed_ref=1 / me_range=16 / chroma_me=1 / trellis=1 / 8x8dct=1 / cqm=0 / deadzone=21,11 / fast_pskip=1 / chroma_qp_offset=-2 / threads=6 / sliced_threads=0 / nr=0 / decimate=1 / interlaced=0 / constrained_intra=0 / bframes=3 / b_pyramid=0 / b_adapt=1 / b_bias=0 / direct=1 / weightb=1 / open_gop=0 / weightp=2 / keyint=240 / keyint_min=24 / scenecut=40 / intra_refresh=0 / rc_lookahead=40 / rc=crf / mbtree=1 / crf=22.0 / qcomp=0.60 / qpmin=10 / qpmax=51 / qpstep=4 / vbv_maxrate=700 / vbv_bufsize=600 / crf_max=0.0 / ip_ratio=1.40 / aq=1:1.00 / nal_hrd=none Language                         : Hindi  Audio #1 ID                               : 2\n Format                           : MPEG Audio\n Format version                   : Version 1 Format profile                   : Layer 3\n Codec ID                         : A_MPEG/L3\n Codec ID/Hint                    : MP3\n Duration                         : 1h 43mn\n Bit rate mode                    : Constant\n Bit rate                         : 96.0 Kbps\n Channel(s)                       : 2 channels\n Sampling rate                    : 44.1 KHz\n Resolution                       : 16 bits\n Stream size                      : 71.3 MiB (14%)\n Title                            : imkhan\n Language                         : Hindi\n Audio #2\n ID                               : 3\n Format                           : MPEG Audio\n Format version                   : Version 1\n Format profile                   : Layer 3\n Codec ID                         : A_MPEG/L3\n Codec ID/Hint                    : MP3\n Duration                         : 1h 43mn\n Bit rate mode                    : Constant\n Bit rate                         : 96.0 Kbps\n Channel(s)                       : 2 channels\n Sampling rate                    : 44.1 KHz\n Resolution                       : 16 bits\n Stream size                      : 71.3 MiB (14%)\n Title                            : imkhan\n\n","torrent":{"xt":"urn:btih:2a031429f5b44a903c5f988ce6fc362ead4e8b39","amp;dn":"Scream+4+%282011%29+Dual+Audio+%5BHindi-Eng%5D%40Mastitorrents","amp;tr":["udp%3A%2F%2Ftracker.openbittorrent.com%3A80","udp%3A%2F%2Fopen.demonii.com%3A1337","udp%3A%2F%2Ftracker.coppersurfer.tk%3A6969","udp%3A%2F%2Fexodus.desync.com%3A6969"],"infoHash":"2a031429f5b44a903c5f988ce6fc362ead4e8b39","infoHashBuffer":{"type":"Buffer","data":[42,3,20,41,245,180,74,144,60,95,152,140,230,252,54,46,173,78,139,57]},"announce":[],"urlList":[]}}